<?xml version="1.0" encoding="UTF-8"?>
<svg id="Layer_2" data-name="Layer 2" xmlns="http://www.w3.org/2000/svg" width="368.52002" height="368.52002" viewBox="0 0 368.52002 368.52002">
  <defs>
    <style>
      .cls-1 {
        fill-rule: evenodd;
      }
    </style>
  </defs>
  <g id="_レイヤー_1" data-name="レイヤー 1">
    <g>
      <path class="cls-1" d="M247.851624,11.270874c4.647217,9.432739,7.268372,20.042969,7.268372,31.269165,0,39.134766-31.725098,70.859863-70.859985,70.859863s-70.859985-31.725098-70.859985-70.859863c0-11.226196,2.621155-21.836426,7.268372-31.269165C50.239624,37.169189,0,104.846436,0,184.26001c0,101.763916,82.496033,184.26001,184.26001,184.26001s184.26001-82.496094,184.26001-184.26001c0-79.413574-50.239624-147.09082-120.668396-172.989136ZM184.320007,368.280029c-62.629089,0-113.399963-50.770996-113.399963-113.400146s50.770874-113.399902,113.399963-113.399902,113.400024,50.770996,113.400024,113.399902-50.770935,113.400146-113.400024,113.400146Z"/>
      <path class="cls-1" d="M184.26001,0c-23.494202,0-42.539978,19.045898-42.539978,42.540039s19.045776,42.540039,42.539978,42.540039,42.540039-19.045898,42.540039-42.540039S207.754211,0,184.26001,0ZM184.320007,84.839844c-15.640686,0-28.320007-12.679199-28.320007-28.319824,0-15.640869,12.679321-28.320068,28.320007-28.320068s28.320007,12.679199,28.320007,28.320068c0,15.640625-12.67926,28.319824-28.320007,28.319824Z"/>
    </g>
  </g>
</svg>